HIERARCHY
ROOT Hips
{
	OFFSET 0.000000 0.000000 0.000000
	CHANNELS 6 Xposition Yposition Zposition Xrotation Yrotation Zrotation
	JOINT LeftUpLeg_virtual
	{
		OFFSET 0.000000 0.000000 0.000000
		CHANNELS 3 Xrotation Yrotation Zrotation
		JOINT LeftUpLeg
		{
			OFFSET 13.026900 -6.336304 -1.092800
			CHANNELS 3 Xrotation Yrotation Zrotation
			JOINT LeftLeg
			{
				OFFSET 0.524474 -46.096886 9.782700
				CHANNELS 3 Xrotation Yrotation Zrotation
				JOINT LeftFoot
				{
					OFFSET -0.524474 -53.427422 -12.948200
					CHANNELS 3 Xrotation Yrotation Zrotation
					JOINT LeftToeBase
					{
						OFFSET 0.192200 -14.009700 16.364100
						CHANNELS 3 Xrotation Yrotation Zrotation
						JOINT LeftToe_End
						{
							OFFSET -1.784700 -0.561700 9.474800
							CHANNELS 3 Xrotation Yrotation Zrotation
							End Site
							{
								OFFSET 0 0 0
							}
						}
					}
				}
			}
		}
	}
	JOINT RightUpLeg_virtual
	{
		OFFSET 0.000000 0.000000 0.000000
		CHANNELS 3 Xrotation Yrotation Zrotation
		JOINT RightUpLeg
		{
			OFFSET -12.883000 -6.336304 -1.092800
			CHANNELS 3 Xrotation Yrotation Zrotation
			JOINT RightLeg
			{
				OFFSET -0.524587 -46.096825 9.782800
				CHANNELS 3 Xrotation Yrotation Zrotation
				JOINT RightFoot
				{
					OFFSET 0.524587 -53.427383 -12.948300
					CHANNELS 3 Xrotation Yrotation Zrotation
					JOINT RightToeBase
					{
						OFFSET -0.192200 -14.009700 16.364100
						CHANNELS 3 Xrotation Yrotation Zrotation
						JOINT RightToe_End
						{
							OFFSET 1.784700 -0.561700 9.474800
							CHANNELS 3 Xrotation Yrotation Zrotation
							End Site
							{
								OFFSET 0 0 0
							}
						}
					}
				}
			}
		}
	}
	JOINT Spine_virtual
	{
		OFFSET 0.000000 0.000000 0.000000
		CHANNELS 3 Xrotation Yrotation Zrotation
		JOINT Spine
		{
			OFFSET 0.072000 7.257294 -0.789700
			CHANNELS 3 Xrotation Yrotation Zrotation
			JOINT Spine1
			{
				OFFSET 0.000000 12.508769 -0.658067
				CHANNELS 3 Xrotation Yrotation Zrotation
				JOINT Spine1_split
				{
					OFFSET 0.000000 12.508769 -0.658067
					CHANNELS 3 Xrotation Yrotation Zrotation
					JOINT Spine2
					{
						OFFSET 0.000000 12.508769 -0.658067
						CHANNELS 3 Xrotation Yrotation Zrotation
						JOINT Neck_virtual
						{
							OFFSET 0.000000 0.000000 0.000000
							CHANNELS 3 Xrotation Yrotation Zrotation
							JOINT Neck
							{
								OFFSET 0.000000 14.033295 7.520400
								CHANNELS 3 Xrotation Yrotation Zrotation
								JOINT Head
								{
									OFFSET 0.000000 8.198502 5.703100
									CHANNELS 3 Xrotation Yrotation Zrotation
									JOINT HeadTop_End
									{
										OFFSET 0.000000 17.760803 13.332701
										CHANNELS 3 Xrotation Yrotation Zrotation
										End Site
										{
											OFFSET 0 0 0
										}
									}
								}
							}
						}
						JOINT LeftShoulder_virtual
						{
							OFFSET 0.000000 0.000000 0.000000
							CHANNELS 3 Xrotation Yrotation Zrotation
							JOINT LeftShoulder
							{
								OFFSET 6.292450 5.785301 -0.669000
								CHANNELS 3 Xrotation Yrotation Zrotation
								JOINT LeftShoulder_split
								{
									OFFSET 6.292450 5.785301 -0.669000
									CHANNELS 3 Xrotation Yrotation Zrotation
									JOINT LeftArm
									{
										OFFSET 13.907140 -6.093903 1.965100
										CHANNELS 3 Xrotation Yrotation Zrotation
										JOINT LeftForeArm
										{
											OFFSET 34.140198 0.000000 0.000000
											CHANNELS 3 Xrotation Yrotation Zrotation
											JOINT LeftHand
											{
												OFFSET 40.960209 0.000000 0.000000
												CHANNELS 3 Xrotation Yrotation Zrotation
												End Site
												{
													OFFSET 0 0 0
												}
											}
										}
									}
								}
							}
						}
						JOINT RightShoulder_virtual
						{
							OFFSET 0.000000 0.000000 0.000000
							CHANNELS 3 Xrotation Yrotation Zrotation
							JOINT RightShoulder
							{
								OFFSET -6.292450 5.785301 -0.669000
								CHANNELS 3 Xrotation Yrotation Zrotation
								JOINT RightShoulder_split
								{
									OFFSET -6.292450 5.785301 -0.669000
									CHANNELS 3 Xrotation Yrotation Zrotation
									JOINT RightArm
									{
										OFFSET -13.907140 -6.093903 1.965100
										CHANNELS 3 Xrotation Yrotation Zrotation
										JOINT RightForeArm
										{
											OFFSET -34.140198 0.000000 0.000000
											CHANNELS 3 Xrotation Yrotation Zrotation
											JOINT RightHand
											{
												OFFSET -40.960209 0.000000 0.000000
												CHANNELS 3 Xrotation Yrotation Zrotation
												End Site
												{
													OFFSET 0 0 0
												}
											}
										}
									}
								}
							}
						}
					}
				}
			}
		}
	}
}
MOTION
Frames: 4
Frame Time: 0.03333333
-1.452722 119.353477 13.742569 0.000000 0.000000 0.000000 -17.303456 -16.258516 -3.275326 -77.637142 18.085315 35.696177 104.673298 -11.617473 -2.922248 -35.378553 -10.802064 27.330049 -40.806952 -3.105448 -4.235659 0.000000 0.000000 0.000000 -16.961530 -20.799173 -3.888513 -108.160915 -10.627557 -22.287805 113.360335 9.531541 -1.465023 -2.239041 -5.594297 0.584830 -34.781765 5.148036 5.616104 0.000000 0.000000 0.000000 -12.788112 -18.325449 -3.919028 5.236131 7.096292 -1.696317 13.431986 0.705188 -1.188859 -0.397219 -9.747128 1.616694 0.000000 0.000000 0.000000 19.215392 0.354667 -0.259494 -24.595921 0.271270 -3.524525 -9.478215 8.646780 3.251395 0.000000 0.000000 0.000000 14.731637 0.622086 -0.723825 0.733266 -2.595796 36.304668 1.240660 -2.178215 -0.911138 -46.722561 -30.373954 -7.765041 -18.001961 -38.083007 0.617426 0.000000 0.000000 0.000000 15.301277 0.055281 -0.743062 10.616208 18.184257 -37.468567 5.596491 4.055359 -0.885599 -53.473165 23.290902 10.228625 -16.825806 37.403096 7.108304 0.000000 0.000000 0.000000 
-1.876089 118.162941 13.236284 0.000000 0.000000 0.000000 -18.792386 -16.491584 -3.254758 -79.857240 17.506635 35.330707 106.333731 -11.700748 -2.445416 -33.818309 -10.245191 25.989553 -42.040716 -3.357681 -3.865712 0.000000 0.000000 0.000000 -18.752949 -20.119630 -4.011521 -107.740504 -10.550574 -22.668455 114.050581 9.199525 -1.063339 -2.565295 -5.318938 1.862196 -37.228574 5.006116 5.817474 0.000000 0.000000 0.000000 -14.742622 -17.806508 -4.076372 5.624802 6.677257 -1.451101 13.412333 0.684198 -1.026544 0.671773 -7.000024 2.572810 0.000000 0.000000 0.000000 18.853986 0.246412 -0.121718 -23.767499 0.434275 -3.126885 -9.229730 9.550540 3.302578 0.000000 0.000000 0.000000 14.936705 0.523743 -0.346405 0.647138 -2.682161 36.852132 -0.818844 -1.644454 0.514238 -49.448172 -29.767488 -6.905347 -18.066940 -36.007405 1.606011 0.000000 0.000000 0.000000 14.776792 -0.138830 -0.748332 10.648181 19.418854 -37.285695 5.446690 0.541105 -0.442651 -56.273030 21.519617 11.162775 -19.321109 40.111000 8.836571 0.000000 0.000000 0.000000 
-2.338958 117.216827 12.590906 0.000000 0.000000 0.000000 -20.515154 -16.245306 -3.049341 -81.847482 17.044655 34.765417 107.956747 -11.705068 -1.325443 -30.665104 -9.478265 23.785205 -44.427488 -3.709223 -3.556866 0.000000 0.000000 0.000000 -21.064910 -18.765958 -3.868448 -106.219714 -9.943589 -23.339755 114.855478 8.651638 -1.019454 -2.615470 -4.415728 2.290691 -38.670796 4.895930 6.502392 0.000000 0.000000 0.000000 -17.039468 -16.987920 -4.470973 6.173165 5.879632 -1.228381 12.946513 0.497585 -0.660660 4.169893 -4.879991 3.081310 0.000000 0.000000 0.000000 17.763886 0.100129 0.113758 -23.329261 0.482576 -2.080262 -9.301048 10.146457 2.799282 0.000000 0.000000 0.000000 14.096344 0.329769 0.142529 0.751671 -3.169860 37.911385 -1.304001 -1.844330 1.609817 -53.598762 -27.624876 -8.667665 -17.963894 -36.075922 2.547658 0.000000 0.000000 0.000000 13.387437 -0.395922 -0.528724 10.277826 20.622827 -36.780248 5.253278 -2.395958 0.641333 -57.241838 20.340426 11.210448 -22.367440 42.523720 9.953045 0.000000 0.000000 0.000000 
-2.390862 117.148079 11.746273 0.000000 0.000000 0.000000 -22.498973 -15.524298 -2.727041 -82.582574 17.059289 34.227464 108.149372 -11.331377 -0.429081 -27.390204 -8.478401 21.648556 -46.158774 -3.906522 -3.722325 0.000000 0.000000 0.000000 -23.484825 -16.795147 -3.553815 -102.931566 -9.225779 -23.985053 114.639480 7.887800 -1.236163 -2.874674 -3.197890 1.342551 -39.693269 4.852535 7.478893 0.000000 0.000000 0.000000 -19.506542 -16.199848 -5.021432 7.076863 4.930189 -0.983273 12.454451 0.226770 -0.225145 6.329013 -1.891747 2.254575 0.000000 0.000000 0.000000 16.423943 -0.037171 0.363071 -23.520926 0.258414 -0.607937 -9.661419 10.410105 1.845384 0.000000 0.000000 0.000000 13.012138 0.063928 0.647928 1.051945 -3.919315 38.845714 -0.761523 -2.154083 2.470164 -57.768476 -24.340960 -12.524969 -17.765303 -37.195052 3.433188 0.000000 0.000000 0.000000 11.869407 -0.619056 -0.119332 9.799204 21.760872 -36.228396 4.731001 -3.310254 1.479308 -56.275752 19.908000 11.470606 -24.819092 44.712471 9.885235 0.000000 0.000000 0.000000 
